<mxfile host="Electron" modified="2024-02-08T07:22:02.354Z" agent="Mozilla/5.0 (X11; Linux x86_64) AppleWebKit/537.36 (KHTML, like Gecko) draw.io/23.0.2 Chrome/120.0.6099.109 Electron/28.1.0 Safari/537.36" etag="hRjz-P8ZfkzxlDOB2MMe" version="23.0.2" type="device">
  <diagram id="C5RBs43oDa-KdzZeNtuy" name="Page-1">
    <mxGraphModel dx="2074" dy="769" grid="1" gridSize="10" guides="1" tooltips="1" connect="1" arrows="1" fold="1" page="1" pageScale="1" pageWidth="827" pageHeight="1169" math="0" shadow="0">
      <root>
        <mxCell id="WIyWlLk6GJQsqaUBKTNV-0" />
        <mxCell id="WIyWlLk6GJQsqaUBKTNV-1" parent="WIyWlLk6GJQsqaUBKTNV-0" />
        <mxCell id="-Y4NL7N33n5HOlIcbGTQ-38" value="" style="rounded=0;whiteSpace=wrap;html=1;fillColor=#FFFFBA;fontColor=#ffffff;strokeColor=#2D7600;" parent="WIyWlLk6GJQsqaUBKTNV-1" vertex="1">
          <mxGeometry width="820" height="360" as="geometry" />
        </mxCell>
        <mxCell id="-Y4NL7N33n5HOlIcbGTQ-37" value="" style="rounded=0;whiteSpace=wrap;html=1;fillColor=#FFE3EF;fontColor=#ffffff;strokeColor=#2D7600;" parent="WIyWlLk6GJQsqaUBKTNV-1" vertex="1">
          <mxGeometry y="360" width="820" height="400" as="geometry" />
        </mxCell>
        <mxCell id="-Y4NL7N33n5HOlIcbGTQ-36" value="" style="rounded=0;whiteSpace=wrap;html=1;fillColor=#D8FFBA;fontColor=#ffffff;strokeColor=#2D7600;" parent="WIyWlLk6GJQsqaUBKTNV-1" vertex="1">
          <mxGeometry y="760" width="820" height="400" as="geometry" />
        </mxCell>
        <mxCell id="-Y4NL7N33n5HOlIcbGTQ-1" value="" style="edgeStyle=orthogonalEdgeStyle;rounded=0;orthogonalLoop=1;jettySize=auto;html=1;fillColor=#6a00ff;strokeColor=#3700CC;" parent="WIyWlLk6GJQsqaUBKTNV-1" source="WIyWlLk6GJQsqaUBKTNV-3" target="-Y4NL7N33n5HOlIcbGTQ-0" edge="1">
          <mxGeometry relative="1" as="geometry" />
        </mxCell>
        <mxCell id="WIyWlLk6GJQsqaUBKTNV-3" value="PREPROCESSING" style="rounded=1;whiteSpace=wrap;html=1;fontSize=12;glass=0;strokeWidth=1;shadow=0;strokeColor=#262626;fillColor=#A6A6A6;" parent="WIyWlLk6GJQsqaUBKTNV-1" vertex="1">
          <mxGeometry x="40" y="130" width="200" height="80" as="geometry" />
        </mxCell>
        <mxCell id="-Y4NL7N33n5HOlIcbGTQ-3" value="" style="edgeStyle=orthogonalEdgeStyle;rounded=0;orthogonalLoop=1;jettySize=auto;html=1;fillColor=#6a00ff;strokeColor=#3700CC;" parent="WIyWlLk6GJQsqaUBKTNV-1" source="-Y4NL7N33n5HOlIcbGTQ-0" target="-Y4NL7N33n5HOlIcbGTQ-2" edge="1">
          <mxGeometry relative="1" as="geometry" />
        </mxCell>
        <mxCell id="-Y4NL7N33n5HOlIcbGTQ-0" value="CYCLE 1" style="rounded=1;whiteSpace=wrap;html=1;fontSize=12;glass=0;strokeWidth=1;shadow=0;fillColor=#A6A6A6;" parent="WIyWlLk6GJQsqaUBKTNV-1" vertex="1">
          <mxGeometry x="40" y="400" width="200" height="80" as="geometry" />
        </mxCell>
        <mxCell id="-Y4NL7N33n5HOlIcbGTQ-10" value="" style="rounded=0;orthogonalLoop=1;jettySize=auto;html=1;fillColor=#6a00ff;strokeColor=#3700CC;" parent="WIyWlLk6GJQsqaUBKTNV-1" source="-Y4NL7N33n5HOlIcbGTQ-2" target="-Y4NL7N33n5HOlIcbGTQ-9" edge="1">
          <mxGeometry relative="1" as="geometry" />
        </mxCell>
        <mxCell id="-Y4NL7N33n5HOlIcbGTQ-9" value="POSTPROCEESING" style="rounded=1;whiteSpace=wrap;html=1;fontSize=12;glass=0;strokeWidth=1;shadow=0;fillColor=#A6A6A6;" parent="WIyWlLk6GJQsqaUBKTNV-1" vertex="1">
          <mxGeometry x="320" y="880" width="200" height="260" as="geometry" />
        </mxCell>
        <mxCell id="-Y4NL7N33n5HOlIcbGTQ-14" value="" style="rounded=0;orthogonalLoop=1;jettySize=auto;html=1;entryX=0;entryY=0.5;entryDx=0;entryDy=0;exitX=1;exitY=0.5;exitDx=0;exitDy=0;fillColor=#6a00ff;strokeColor=#3700CC;" parent="WIyWlLk6GJQsqaUBKTNV-1" source="-Y4NL7N33n5HOlIcbGTQ-9" target="-Y4NL7N33n5HOlIcbGTQ-39" edge="1">
          <mxGeometry relative="1" as="geometry">
            <mxPoint x="370" y="903" as="sourcePoint" />
            <mxPoint x="600" y="930" as="targetPoint" />
          </mxGeometry>
        </mxCell>
        <mxCell id="-Y4NL7N33n5HOlIcbGTQ-15" value="" style="group;fillColor=none;" parent="WIyWlLk6GJQsqaUBKTNV-1" vertex="1" connectable="0">
          <mxGeometry x="40" y="880" width="200" height="260" as="geometry" />
        </mxCell>
        <mxCell id="-Y4NL7N33n5HOlIcbGTQ-2" value="FORECAST" style="rounded=1;whiteSpace=wrap;html=1;fontSize=12;glass=0;strokeWidth=1;shadow=0;fillColor=#A6A6A6;" parent="-Y4NL7N33n5HOlIcbGTQ-15" vertex="1">
          <mxGeometry width="200" height="260" as="geometry" />
        </mxCell>
        <mxCell id="-Y4NL7N33n5HOlIcbGTQ-5" value="control run" style="rhombus;whiteSpace=wrap;html=1;" parent="-Y4NL7N33n5HOlIcbGTQ-15" vertex="1">
          <mxGeometry x="20" y="30" width="70" height="70" as="geometry" />
        </mxCell>
        <mxCell id="-Y4NL7N33n5HOlIcbGTQ-6" value="ensemble &lt;br&gt;members" style="rhombus;html=1;opacity=50;textOpacity=50;" parent="-Y4NL7N33n5HOlIcbGTQ-15" vertex="1">
          <mxGeometry x="30" y="160" width="70" height="70" as="geometry" />
        </mxCell>
        <mxCell id="-Y4NL7N33n5HOlIcbGTQ-7" value="ensemble&lt;br&gt;&amp;nbsp;members" style="rhombus;html=1;opacity=50;textOpacity=50;" parent="-Y4NL7N33n5HOlIcbGTQ-15" vertex="1">
          <mxGeometry x="50" y="160" width="70" height="70" as="geometry" />
        </mxCell>
        <mxCell id="-Y4NL7N33n5HOlIcbGTQ-8" value="ensemble members" style="rhombus;whiteSpace=wrap;html=1;" parent="-Y4NL7N33n5HOlIcbGTQ-15" vertex="1">
          <mxGeometry x="70" y="160" width="70" height="70" as="geometry" />
        </mxCell>
        <mxCell id="-Y4NL7N33n5HOlIcbGTQ-31" style="rounded=0;orthogonalLoop=1;jettySize=auto;html=1;exitX=0;exitY=0.5;exitDx=0;exitDy=0;entryX=1;entryY=0.5;entryDx=0;entryDy=0;fillColor=#6a00ff;strokeColor=#3700CC;" parent="WIyWlLk6GJQsqaUBKTNV-1" source="-Y4NL7N33n5HOlIcbGTQ-30" target="WIyWlLk6GJQsqaUBKTNV-3" edge="1">
          <mxGeometry relative="1" as="geometry" />
        </mxCell>
        <mxCell id="-Y4NL7N33n5HOlIcbGTQ-30" value="GFS or IFS" style="ellipse;whiteSpace=wrap;html=1;fillColor=#7EA6E0;" parent="WIyWlLk6GJQsqaUBKTNV-1" vertex="1">
          <mxGeometry x="340" y="130" width="120" height="80" as="geometry" />
        </mxCell>
        <mxCell id="-Y4NL7N33n5HOlIcbGTQ-34" style="rounded=0;orthogonalLoop=1;jettySize=auto;html=1;exitX=0;exitY=0.5;exitDx=0;exitDy=0;fillColor=#6a00ff;strokeColor=#3700CC;" parent="WIyWlLk6GJQsqaUBKTNV-1" source="-Y4NL7N33n5HOlIcbGTQ-32" target="-Y4NL7N33n5HOlIcbGTQ-0" edge="1">
          <mxGeometry relative="1" as="geometry" />
        </mxCell>
        <mxCell id="-Y4NL7N33n5HOlIcbGTQ-32" value="RADAR" style="ellipse;whiteSpace=wrap;html=1;fillColor=#7EA6E0;" parent="WIyWlLk6GJQsqaUBKTNV-1" vertex="1">
          <mxGeometry x="280" y="390" width="90" height="50" as="geometry" />
        </mxCell>
        <mxCell id="-Y4NL7N33n5HOlIcbGTQ-35" style="rounded=0;orthogonalLoop=1;jettySize=auto;html=1;exitX=0.033;exitY=0.3;exitDx=0;exitDy=0;entryX=1;entryY=0.75;entryDx=0;entryDy=0;fillColor=#6a00ff;strokeColor=#3700CC;exitPerimeter=0;" parent="WIyWlLk6GJQsqaUBKTNV-1" source="-Y4NL7N33n5HOlIcbGTQ-33" target="-Y4NL7N33n5HOlIcbGTQ-0" edge="1">
          <mxGeometry relative="1" as="geometry" />
        </mxCell>
        <mxCell id="-Y4NL7N33n5HOlIcbGTQ-33" value="WEATHER STATION" style="ellipse;whiteSpace=wrap;html=1;fillColor=#7EA6E0;" parent="WIyWlLk6GJQsqaUBKTNV-1" vertex="1">
          <mxGeometry x="280" y="450" width="90" height="50" as="geometry" />
        </mxCell>
        <mxCell id="-Y4NL7N33n5HOlIcbGTQ-39" value="DELIVERY" style="rounded=1;whiteSpace=wrap;html=1;fontSize=12;glass=0;strokeWidth=1;shadow=0;fillColor=#A6A6A6;" parent="WIyWlLk6GJQsqaUBKTNV-1" vertex="1">
          <mxGeometry x="600" y="880" width="200" height="260" as="geometry" />
        </mxCell>
        <mxCell id="-Y4NL7N33n5HOlIcbGTQ-41" value="WARMUP" style="text;html=1;align=right;verticalAlign=middle;whiteSpace=wrap;rounded=0;fontColor=#080808;fontSize=42;" parent="WIyWlLk6GJQsqaUBKTNV-1" vertex="1">
          <mxGeometry x="580" y="380" width="230" height="30" as="geometry" />
        </mxCell>
        <mxCell id="-Y4NL7N33n5HOlIcbGTQ-42" value="RADAR" style="ellipse;whiteSpace=wrap;html=1;fillColor=#7EA6E0;" parent="WIyWlLk6GJQsqaUBKTNV-1" vertex="1">
          <mxGeometry x="280" y="510" width="90" height="50" as="geometry" />
        </mxCell>
        <mxCell id="-Y4NL7N33n5HOlIcbGTQ-43" value="CYCLE 2" style="rounded=1;whiteSpace=wrap;html=1;fontSize=12;glass=0;strokeWidth=1;shadow=0;fillColor=#A6A6A6;" parent="WIyWlLk6GJQsqaUBKTNV-1" vertex="1">
          <mxGeometry x="40" y="520" width="200" height="80" as="geometry" />
        </mxCell>
        <mxCell id="-Y4NL7N33n5HOlIcbGTQ-44" style="rounded=0;orthogonalLoop=1;jettySize=auto;html=1;exitX=0;exitY=0.5;exitDx=0;exitDy=0;fillColor=#6a00ff;strokeColor=#3700CC;" parent="WIyWlLk6GJQsqaUBKTNV-1" source="-Y4NL7N33n5HOlIcbGTQ-42" target="-Y4NL7N33n5HOlIcbGTQ-43" edge="1">
          <mxGeometry relative="1" as="geometry" />
        </mxCell>
        <mxCell id="-Y4NL7N33n5HOlIcbGTQ-45" style="rounded=0;orthogonalLoop=1;jettySize=auto;html=1;exitX=0.033;exitY=0.3;exitDx=0;exitDy=0;entryX=1;entryY=0.75;entryDx=0;entryDy=0;fillColor=#6a00ff;strokeColor=#3700CC;exitPerimeter=0;" parent="WIyWlLk6GJQsqaUBKTNV-1" source="-Y4NL7N33n5HOlIcbGTQ-46" target="-Y4NL7N33n5HOlIcbGTQ-43" edge="1">
          <mxGeometry relative="1" as="geometry" />
        </mxCell>
        <mxCell id="-Y4NL7N33n5HOlIcbGTQ-46" value="WEATHER STATION" style="ellipse;whiteSpace=wrap;html=1;fillColor=#7EA6E0;" parent="WIyWlLk6GJQsqaUBKTNV-1" vertex="1">
          <mxGeometry x="280" y="570" width="90" height="50" as="geometry" />
        </mxCell>
        <mxCell id="-Y4NL7N33n5HOlIcbGTQ-47" value="RADAR" style="ellipse;whiteSpace=wrap;html=1;fillColor=#7EA6E0;" parent="WIyWlLk6GJQsqaUBKTNV-1" vertex="1">
          <mxGeometry x="280" y="630" width="90" height="50" as="geometry" />
        </mxCell>
        <mxCell id="-Y4NL7N33n5HOlIcbGTQ-48" value="CYCLE 3" style="rounded=1;whiteSpace=wrap;html=1;fontSize=12;glass=0;strokeWidth=1;shadow=0;fillColor=#A6A6A6;" parent="WIyWlLk6GJQsqaUBKTNV-1" vertex="1">
          <mxGeometry x="40" y="640" width="200" height="80" as="geometry" />
        </mxCell>
        <mxCell id="-Y4NL7N33n5HOlIcbGTQ-49" style="rounded=0;orthogonalLoop=1;jettySize=auto;html=1;exitX=0;exitY=0.5;exitDx=0;exitDy=0;fillColor=#6a00ff;strokeColor=#3700CC;" parent="WIyWlLk6GJQsqaUBKTNV-1" source="-Y4NL7N33n5HOlIcbGTQ-47" target="-Y4NL7N33n5HOlIcbGTQ-48" edge="1">
          <mxGeometry relative="1" as="geometry" />
        </mxCell>
        <mxCell id="-Y4NL7N33n5HOlIcbGTQ-50" style="rounded=0;orthogonalLoop=1;jettySize=auto;html=1;exitX=0.033;exitY=0.3;exitDx=0;exitDy=0;entryX=1;entryY=0.75;entryDx=0;entryDy=0;fillColor=#6a00ff;strokeColor=#3700CC;exitPerimeter=0;" parent="WIyWlLk6GJQsqaUBKTNV-1" source="-Y4NL7N33n5HOlIcbGTQ-51" target="-Y4NL7N33n5HOlIcbGTQ-48" edge="1">
          <mxGeometry relative="1" as="geometry" />
        </mxCell>
        <mxCell id="-Y4NL7N33n5HOlIcbGTQ-51" value="WEATHER STATION" style="ellipse;whiteSpace=wrap;html=1;fillColor=#7EA6E0;" parent="WIyWlLk6GJQsqaUBKTNV-1" vertex="1">
          <mxGeometry x="280" y="690" width="90" height="50" as="geometry" />
        </mxCell>
        <mxCell id="-Y4NL7N33n5HOlIcbGTQ-53" value="FORECAST" style="text;html=1;align=right;verticalAlign=middle;whiteSpace=wrap;rounded=0;fontColor=#080808;fontSize=42;" parent="WIyWlLk6GJQsqaUBKTNV-1" vertex="1">
          <mxGeometry x="580" y="780" width="230" height="30" as="geometry" />
        </mxCell>
        <mxCell id="-Y4NL7N33n5HOlIcbGTQ-54" value="PREPROCESSING" style="text;html=1;align=right;verticalAlign=middle;whiteSpace=wrap;rounded=0;fontColor=#080808;fontSize=42;" parent="WIyWlLk6GJQsqaUBKTNV-1" vertex="1">
          <mxGeometry x="580" y="20" width="230" height="30" as="geometry" />
        </mxCell>
      </root>
    </mxGraphModel>
  </diagram>
</mxfile>
